#!OML:ASF Y:\EmotionMaleHayes\Project 1\Capture day 1\Session 1\Male1.ASF
:FULLY-SPECIFIED
:DEGREES
415
root -19.7508 16.8957 9.75384 8.41042 51.2456 12.8155
lowerback 9.82584 1.10065 -13.8199
upperback 3.05663 0.160613 -2.2781
thorax -2.28652 0.128701 5.32506
lowerneck -19.4703 5.90797 7.37536
upperneck 25.6234 7.27408 -3.71949
head 12.0889 3.55621 -1.43285
rclavicle -3.19546e-014 -5.96354e-014
rhumerus -45.003 -3.52273 -77.253
rradius 29.4462
rwrist 4.80905
rhand -9.32082 -32.043
rfingers 7.12502
rthumb 16.6376 -61.3499
lclavicle -3.19546e-014 -5.96354e-014
lhumerus -16.4988 -17.1717 81.8506
lradius 38.7204
lwrist -0.698694
lhand -16.1718 -27.0111
lfingers 7.12502
lthumb 10.0344 2.72967
rfemur -26.4813 -8.21041 7.31365
rtibia 42.5574
rfoot -12.4492 -3.49173
rtoes 21.0149
lfemur 12.9933 -3.05554 -32.7514
ltibia 7.33673
lfoot -17.7774 1.83496
ltoes 4.61926
416
root -19.648 16.8728 9.8469 8.65022 51.5645 12.9534
lowerback 9.76717 1.02404 -13.8778
upperback 3.00692 0.0594292 -2.22019
thorax -2.28723 0.0801861 5.43073
lowerneck -19.5093 5.91815 7.40075
upperneck 25.5079 7.27288 -3.73445
head 12.0533 3.55458 -1.44224
rclavicle 3.22031e-014 3.4191e-014
rhumerus -45.3923 -3.97289 -76.7221
rradius 29.3812
rwrist 4.71164
rhand -9.25835 -31.7704
rfingers 7.12502
rthumb 16.6977 -61.0723
lclavicle 3.22031e-014 3.4191e-014
lhumerus -16.2498 -17.6963 81.7959
lradius 39.3046
lwrist -0.185619
lhand -16.0442 -27.0705
lfingers 7.12502
lthumb 10.1575 2.66429
rfemur -26.6421 -7.90785 6.99993
rtibia 39.6181
rfoot -11.7251 -3.94851
rtoes 22.7442
lfemur 13.5685 -3.23061 -32.8046
ltibia 6.93851
lfoot -17.82 1.83301
ltoes 4.51032
417
root -19.5403 16.8437 9.93791 9.30178 51.8798 13.4787
lowerback 9.55464 0.907873 -14.1103
upperback 2.95386 -0.0842143 -2.21764
thorax -2.19521 0.00571709 5.57824
lowerneck -19.5994 5.9843 7.35375
upperneck 25.4842 7.36926 -3.72113
head 12.0654 3.59257 -1.41095
rclavicle -7.8023e-015 -4.13472e-014
rhumerus -45.7005 -4.57735 -76.0477
rradius 29.2564
rwrist 5.00983
rhand -9.1237 -31.7826
rfingers 7.12502
rthumb 16.8274 -61.0735
lclavicle -7.8023e-015 -4.13472e-014
lhumerus -15.8679 -18.0391 81.7315
lradius 39.8184
lwrist 0.0193231
lhand -15.9171 -27.3975
lfingers 7.12502
lthumb 10.2801 2.33123
rfemur -26.8376 -7.70846 6.34081
rtibia 36.5873
rfoot -10.5141 -4.26606
rtoes 24.9574
lfemur 13.9334 -3.14821 -33.0338
ltibia 6.78727
lfoot -17.8922 1.46336
ltoes 5.05778
418
root -19.4314 16.8124 10.0317 10.2015 52.1562 14.2756
lowerback 9.28471 0.815597 -14.4906
upperback 2.89033 -0.19975 -2.27289
thorax -2.0851 -0.0548859 5.74117
lowerneck -19.6267 6.00428 7.26994
upperneck 25.4268 7.40408 -3.67004
head 12.0444 3.60578 -1.37171
rclavicle -4.34841e-014 -1.90833e-014
rhumerus -46.0665 -5.30275 -75.3557
rradius 29.1677
rwrist 5.52871
rhand -9.06416 -32.1767
rfingers 7.12502
rthumb 16.8847 -61.4627
lclavicle -4.34841e-014 -1.90833e-014
lhumerus -15.4785 -18.3711 81.7053
lradius 40.2563
lwrist 0.0752413
lhand -15.9039 -27.5409
lfingers 7.12502
lthumb 10.2929 2.18723
rfemur -26.9664 -7.33271 5.4096
rtibia 33.3803
rfoot -9.08183 -4.70354
rtoes 27.2786
lfemur 14.2075 -2.98801 -33.394
ltibia 6.8598
lfoot -18.1397 0.932972
ltoes 4.97532
419
root -19.3231 16.7827 10.1283 10.6777 52.4269 14.6913
lowerback 9.13237 0.775828 -14.6762
upperback 2.84553 -0.245846 -2.26024
thorax -2.03615 -0.0789562 5.86143
lowerneck -19.4283 5.94271 7.06775
upperneck 25.1005 7.3265 -3.49598
head 11.8563 3.57663 -1.29342
rclavicle 9.98396e-014 -7.15625e-015
rhumerus -46.5047 -5.85474 -74.7971
rradius 29.1243
rwrist 5.67624
rhand -9.08025 -32.4692
rfingers 7.12502
rthumb 16.8692 -61.7565
lclavicle 9.98396e-014 -7.15625e-015
lhumerus -15.2208 -18.8945 81.7046
lradius 40.8553
lwrist 0.239863
lhand -15.9532 -27.3974
lfingers 7.12502
lthumb 10.2453 2.33308
rfemur -26.8061 -6.52862 4.66808
rtibia 29.9839
rfoot -7.74059 -5.22181
rtoes 28.9615
lfemur 14.7258 -2.99051 -33.5545
ltibia 6.83261
lfoot -18.5979 0.752712
ltoes 2.56996
420
root -19.2162 16.753 10.2259 11.1165 52.7578 15.1333
lowerback 9.0469 0.756685 -14.9035
upperback 2.88092 -0.269566 -2.2354
thorax -1.94146 -0.0982583 6.01525
lowerneck -19.5245 5.88165 7.15417
upperneck 25.0144 7.25624 -3.69818
head 11.8502 3.52521 -1.39263
rclavicle -1.16289e-014 1.19271e-015
rhumerus -46.7477 -6.47372 -74.2068
rradius 28.9338
rwrist 5.56124
rhand -9.04318 -32.1861
rfingers 7.12502
rthumb 16.9049 -61.4704
lclavicle -1.16289e-014 1.19271e-015
lhumerus -14.8381 -19.4306 81.6714
lradius 41.325
lwrist 0.375104
lhand -15.9458 -27.6928
lfingers 7.12502
lthumb 10.2524 2.03735
rfemur -26.5274 -5.7315 3.86876
rtibia 26.6853
rfoot -6.68847 -5.58967
rtoes 30.5335
lfemur 15.27 -3.04005 -33.7146
ltibia 6.63942
lfoot -18.9555 0.743459
ltoes -0.602439
